<?xml version="1.0" standalone="no"?>
<!DOCTYPE svg PUBLIC "-//W3C//DTD SVG 20010904//EN"
 "http://www.w3.org/TR/2001/REC-SVG-20010904/DTD/svg10.dtd">
<svg version="1.0" xmlns="http://www.w3.org/2000/svg"
 width="1280.000000pt" height="720.000000pt" viewBox="0 0 1280.000000 720.000000"
 preserveAspectRatio="xMidYMid meet">
<metadata>
Created by potrace 1.16, written by Peter Selinger 2001-2019
</metadata>
<g transform="translate(0.000000,720.000000) scale(0.100000,-0.100000)"
fill="#000000" stroke="none">
<path d="M4975 5885 c-575 -52 -535 -46 -535 -70 0 -20 7 -23 62 -29 124 -13
217 -76 270 -184 l33 -67 3 -587 c1 -324 0 -588 -3 -588 -4 0 -33 22 -66 49
-119 95 -266 166 -412 197 -92 19 -297 18 -394 -2 -391 -81 -713 -431 -784
-854 -17 -96 -17 -284 0 -380 25 -149 79 -286 169 -426 54 -84 194 -228 275
-283 101 -68 241 -126 372 -152 83 -16 275 -14 360 5 149 32 311 110 423 205
27 23 51 41 55 41 4 0 7 -58 7 -128 0 -71 2 -131 4 -133 4 -4 284 10 556 28
l115 8 3 40 3 41 -75 11 c-128 18 -215 76 -260 172 l-21 46 -3 1528 c-1 840
-6 1526 -10 1526 -4 -1 -70 -7 -147 -14z m-495 -1365 c79 -21 179 -81 256
-153 l74 -69 0 -738 0 -738 -64 -59 c-295 -277 -682 -242 -943 85 -268 335
-309 886 -97 1280 88 162 206 282 344 352 128 65 286 80 430 40z"/>
<path d="M1926 5308 c-46 -109 -97 -235 -425 -1058 l-337 -845 -107 -7 c-334
-21 -624 -175 -699 -372 -64 -170 6 -336 162 -383 60 -19 112 -20 623 -15
l287 2 0 30 c0 24 -5 31 -27 35 -198 40 -306 127 -320 256 -5 57 3 88 67 255
45 119 39 114 148 103 251 -26 513 -126 920 -351 81 -45 208 -115 282 -156
291 -160 826 -469 1072 -618 417 -254 587 -341 822 -420 514 -174 1030 -117
1332 148 104 92 184 243 191 363 l5 70 -28 -35 c-136 -169 -316 -281 -534
-331 -112 -26 -325 -35 -465 -20 -208 22 -444 87 -723 198 -64 25 -389 183
-722 350 -551 277 -950 471 -1135 551 -447 193 -704 279 -950 317 -136 22
-138 22 -132 38 6 14 190 463 282 687 35 85 84 205 110 265 26 61 70 166 97
234 54 136 66 158 87 166 29 11 30 10 242 -495 45 -107 98 -235 118 -285 201
-488 333 -796 351 -816 12 -15 548 -289 564 -289 7 0 -90 224 -174 405 -19 41
-345 775 -415 935 -40 91 -95 215 -122 275 -28 61 -63 139 -78 175 -15 36 -58
133 -95 215 -37 83 -96 213 -129 291 -91 209 -106 222 -145 132z m-806 -2001
c0 -20 -85 -231 -127 -316 -50 -102 -163 -216 -256 -260 -117 -56 -211 -52
-282 11 -72 62 -86 198 -31 292 53 90 182 174 356 231 137 45 340 70 340 42z"/>
<path d="M6760 4705 c-68 -14 -234 -66 -266 -83 -10 -5 -37 -18 -58 -28 -84
-40 -105 -54 -111 -74 -3 -11 -13 -20 -22 -20 -22 0 -111 -77 -118 -103 -4
-12 -29 -42 -55 -67 -70 -65 -139 -158 -151 -205 -6 -22 -16 -51 -22 -65 -5
-14 -15 -60 -22 -104 -10 -65 -9 -85 2 -120 11 -30 12 -46 4 -58 -6 -10 -11
-33 -11 -51 0 -45 47 -136 75 -147 13 -5 26 -17 29 -28 4 -11 24 -36 46 -56
26 -24 40 -45 40 -62 0 -28 75 -134 96 -134 29 0 24 23 -10 52 -35 28 -36 32
-36 93 0 61 -1 65 -30 80 -36 19 -38 44 -9 91 11 19 18 38 14 44 -11 18 -54
11 -65 -10 -11 -20 -44 -27 -54 -11 -13 20 -16 95 -5 133 13 48 52 105 80 113
10 3 27 2 37 -4 13 -7 27 -6 47 5 31 16 31 16 61 -40 10 -18 14 -40 10 -58 -7
-34 11 -75 25 -61 6 6 12 41 15 78 2 37 9 74 15 81 13 16 4 20 -61 28 -78 9
-120 18 -126 27 -3 5 -23 9 -44 9 -75 0 -115 33 -72 60 11 7 13 13 6 16 -12 5
9 112 27 144 5 8 14 27 20 43 6 15 17 27 25 27 8 0 23 5 33 12 15 9 24 8 47
-6 25 -17 27 -17 21 -1 -4 9 -7 20 -7 25 0 4 -9 10 -20 13 -11 3 -20 10 -20
15 0 17 43 22 60 7 20 -18 36 -20 23 -2 -6 6 -8 31 -5 55 4 44 24 56 50 30 9
-9 12 -3 12 29 0 32 4 42 20 46 10 3 27 -1 36 -8 14 -10 21 -9 35 3 12 11 15
20 9 27 -14 17 -4 23 26 17 15 -3 23 -10 20 -18 -3 -7 0 -15 7 -18 7 -2 1 -5
-13 -5 -24 -1 -25 -4 -22 -51 2 -27 8 -48 12 -45 5 3 11 1 15 -5 3 -5 1 -10
-5 -10 -7 0 -9 -8 -5 -20 5 -14 2 -20 -9 -20 -10 0 -16 9 -16 25 0 14 -5 25
-11 25 -7 0 -9 -9 -6 -21 7 -24 -21 -39 -34 -18 -6 10 -9 10 -9 2 0 -7 -9 -13
-20 -13 -11 0 -20 -7 -20 -15 0 -8 -5 -15 -11 -15 -6 0 -9 -7 -5 -15 7 -20
-32 -41 -47 -26 -19 19 -28 12 -13 -11 8 -13 17 -38 21 -55 6 -30 10 -33 41
-33 40 0 42 -5 12 -30 -27 -22 -16 -39 28 -44 16 -2 33 -4 38 -5 4 0 6 -8 3
-16 -4 -8 -2 -17 3 -20 5 -3 7 -12 4 -20 -4 -8 -10 -12 -16 -9 -5 3 -20 -6
-34 -21 -28 -30 -29 -35 -9 -35 7 0 18 -7 23 -17 9 -15 12 -14 40 5 16 12 35
22 40 22 6 0 14 14 17 32 9 39 26 68 41 68 16 0 55 45 47 55 -5 4 2 5 15 2 18
-4 30 2 52 26 24 27 31 30 52 20 33 -15 68 8 48 32 -10 12 -10 18 0 30 10 12
9 15 -4 15 -9 0 -19 -7 -22 -15 -4 -8 -12 -15 -20 -15 -8 0 -14 -4 -14 -10 0
-5 -13 -10 -30 -10 -16 0 -30 -4 -30 -9 0 -5 -9 -11 -21 -14 -14 -4 -18 -10
-13 -19 4 -7 -2 -4 -13 7 -13 13 -16 21 -8 23 13 3 39 52 31 59 -2 2 -7 -5
-11 -16 -13 -43 -65 -11 -65 40 0 12 37 12 45 -1 16 -26 77 9 67 38 -5 17 18
44 34 38 8 -3 11 0 7 11 -14 36 44 37 66 1 11 -18 11 -23 -1 -32 -8 -6 -17
-19 -21 -28 -5 -14 -1 -18 18 -18 14 0 25 5 25 10 0 14 43 13 75 -2 16 -7 25
-19 25 -35 0 -22 13 -29 50 -23 25 3 26 11 1 29 -17 13 -22 24 -17 39 6 16 2
21 -21 26 -31 6 -68 3 -97 -10 -14 -5 -17 -4 -12 4 4 7 14 12 22 12 8 0 14 4
14 9 0 13 53 21 68 9 6 -6 12 -7 12 -3 0 4 -8 13 -17 20 -9 7 -23 30 -30 51
l-12 39 5 -37 c4 -33 3 -37 -13 -31 -10 4 -22 12 -28 19 -5 7 -21 14 -34 16
-14 2 -26 10 -29 18 -4 12 -2 13 9 3 20 -19 29 -16 29 11 0 21 5 25 43 28 55
6 70 10 82 25 13 16 101 10 97 -6 -1 -6 11 -14 27 -17 18 -4 28 -11 25 -19 -3
-7 2 -20 11 -29 15 -15 18 -15 32 0 9 9 17 24 18 34 2 23 23 50 40 50 7 0 15
6 18 14 3 7 20 16 39 20 21 4 37 14 43 28 11 24 35 36 35 18 0 -6 -5 -8 -12
-4 -6 4 -8 3 -5 -3 8 -12 70 -4 79 11 5 8 11 7 20 -2 6 -6 22 -12 35 -12 13 0
23 -4 23 -8 0 -4 14 -16 30 -25 17 -10 30 -27 30 -37 0 -10 5 -20 11 -22 6 -2
12 -30 14 -62 4 -72 24 -98 68 -89 23 5 28 3 22 -7 -6 -10 0 -12 24 -8 29 4
31 2 31 -25 0 -19 6 -30 18 -34 20 -5 48 -43 32 -43 -5 0 -10 -6 -10 -14 0
-15 -41 -30 -50 -18 -12 16 -64 11 -77 -8 -8 -11 -20 -20 -28 -20 -8 0 -19 -9
-25 -20 -6 -11 -18 -20 -27 -20 -9 0 -22 -8 -29 -17 -13 -17 -15 -17 -29 2 -9
11 -13 26 -10 33 4 11 -17 61 -42 101 -1 2 -9 -2 -17 -8 -8 -7 -24 -10 -35 -6
-27 8 -37 -13 -15 -30 14 -9 23 -10 32 -3 9 8 18 6 32 -7 25 -23 25 -37 0 -60
-33 -30 -25 -71 16 -93 18 -10 27 -8 48 9 16 13 33 18 46 14 14 -4 22 -1 27
12 4 10 14 23 23 30 10 7 23 26 30 42 6 16 19 32 27 35 22 9 58 -3 68 -23 30
-54 59 -91 71 -91 7 0 19 -19 26 -41 10 -36 10 -46 -6 -72 -17 -30 -17 -31 4
-47 17 -13 21 -25 18 -56 -2 -33 0 -39 17 -42 17 -2 22 6 31 42 5 25 7 51 3
58 -3 7 -10 24 -14 37 -6 20 -4 23 9 18 12 -5 16 -1 16 14 0 15 5 19 15 15 8
-3 15 -1 15 5 0 6 7 9 15 5 10 -3 15 1 15 14 0 25 18 36 26 16 4 -11 13 -14
31 -10 21 6 24 3 21 -12 -2 -10 -14 -24 -28 -31 -17 -8 -24 -19 -22 -33 2 -11
-2 -20 -9 -20 -7 0 -9 -3 -6 -6 9 -9 38 16 31 27 -3 5 6 9 20 9 14 0 28 5 31
10 9 15 25 2 25 -21 0 -10 5 -19 11 -19 6 0 9 -6 6 -14 -3 -7 0 -19 6 -25 9
-9 9 -14 -2 -20 -9 -6 -10 -11 -2 -15 12 -8 15 -46 3 -46 -4 0 -13 -10 -21
-22 -10 -18 -11 -20 0 -10 22 20 49 14 60 -15 9 -25 0 -42 -23 -43 -17 0 -7
-40 12 -52 30 -19 28 -85 -2 -99 -21 -9 -21 -9 5 -4 19 4 27 1 27 -9 0 -8 8
-19 18 -25 16 -9 16 -10 -1 -16 -9 -4 -28 -4 -42 -1 -19 5 -27 2 -32 -11 -6
-19 -72 -83 -85 -83 -15 0 -8 -59 8 -68 13 -7 15 -17 10 -38 -4 -16 -10 -45
-13 -64 -5 -34 -5 -34 13 -18 11 9 25 38 33 63 12 40 12 48 0 56 -11 6 -11 11
-1 21 6 6 12 20 12 30 0 21 31 40 49 29 18 -11 6 -64 -20 -87 -19 -17 -27 -40
-10 -30 17 11 18 -20 2 -71 -9 -28 -20 -55 -24 -60 -12 -12 -40 -76 -38 -87 1
-4 -9 -22 -22 -40 -13 -17 -29 -47 -37 -66 -7 -19 -17 -39 -22 -44 -11 -14
-10 -46 2 -46 14 0 93 84 110 117 8 15 18 30 21 33 8 7 64 148 82 205 37 123
47 205 48 370 1 176 -22 278 -97 443 -19 41 -34 75 -34 77 0 25 -165 238 -238
306 -73 68 -252 175 -277 165 -8 -3 -14 0 -12 6 2 13 -58 39 -148 64 -33 9
-78 23 -100 31 -57 22 -328 27 -415 8z m-149 -232 c4 -59 -9 -91 -44 -107 -49
-23 -137 -10 -97 14 11 7 11 11 1 24 -19 22 -8 42 36 65 49 26 103 28 104 4z
m1114 -252 c-3 -5 5 -11 17 -13 19 -2 23 -9 21 -33 -3 -32 13 -47 40 -39 12 4
17 0 17 -15 0 -11 -5 -23 -10 -26 -6 -4 -8 -16 -5 -26 5 -16 3 -20 -11 -17 -9
2 -19 -3 -21 -9 -3 -7 2 -13 11 -13 22 0 20 -17 -3 -23 -19 -5 -76 35 -65 46
4 3 -5 9 -19 12 -28 7 -64 75 -52 96 5 8 4 10 -3 5 -8 -5 -12 1 -12 15 l0 22
23 -21 c13 -12 27 -19 30 -15 4 3 5 -7 2 -23 -4 -23 1 -36 25 -63 29 -33 31
-33 45 -15 18 24 29 54 21 61 -3 3 -11 -6 -17 -21 -17 -36 -29 -33 -29 8 0 22
-6 36 -16 40 -9 4 -14 9 -11 12 3 3 2 17 -3 29 -7 19 -5 25 8 28 9 3 18 5 20
6 2 0 1 -3 -3 -8z"/>
<path d="M9632 4554 c-161 -47 -316 -144 -444 -278 l-78 -81 0 173 c0 94 -1
172 -3 172 -2 0 -88 -9 -192 -19 -105 -11 -259 -25 -342 -32 -147 -12 -153
-13 -153 -34 0 -20 7 -23 59 -28 119 -10 225 -87 277 -200 l29 -62 3 -648 c2
-414 -1 -669 -8 -704 -28 -154 -123 -259 -253 -278 -47 -7 -47 -7 -47 -46 l0
-39 475 0 475 0 0 39 0 38 -49 6 c-107 13 -199 87 -243 196 -23 56 -23 57 -23
636 l0 580 29 85 c48 142 116 258 184 318 42 36 118 72 167 79 68 9 101 -10
135 -76 57 -113 150 -176 260 -176 109 0 153 48 153 165 -2 203 -163 288 -411
214z"/>
<path d="M10720 4523 c-74 -8 -220 -22 -325 -31 -178 -16 -190 -18 -190 -37 0
-17 9 -21 64 -28 127 -16 230 -91 278 -206 l28 -66 0 -665 c0 -659 0 -666 -22
-735 -39 -125 -129 -207 -242 -222 -40 -5 -41 -7 -41 -44 l0 -39 475 0 475 0
0 40 c0 37 -2 40 -28 40 -88 0 -187 60 -235 142 -57 99 -57 93 -57 819 l0 668
58 21 c104 40 227 60 368 60 156 0 217 -10 304 -51 110 -51 151 -103 190 -240
29 -103 33 -230 22 -739 l-8 -435 -30 -65 c-50 -107 -154 -180 -256 -180 -26
0 -28 -3 -28 -40 l0 -40 480 0 480 0 0 40 c0 38 -2 40 -30 40 -58 0 -136 38
-185 91 -104 111 -109 150 -101 719 8 480 1 617 -34 756 -30 115 -66 182 -139
255 -234 234 -623 222 -1022 -30 l-64 -41 -3 130 c-3 127 -3 130 -25 129 -12
-1 -83 -8 -157 -16z"/>
<path d="M5670 4270 c-39 -39 -19 -80 60 -120 22 -11 40 -24 40 -29 0 -5 -16
-46 -35 -91 -78 -183 -115 -404 -96 -584 32 -317 151 -567 373 -788 171 -170
395 -289 657 -350 79 -18 130 -22 286 -24 l189 -2 19 -77 c10 -42 15 -80 10
-85 -4 -4 -71 -22 -148 -40 -77 -18 -152 -39 -167 -46 -45 -23 -82 -81 -88
-137 -5 -47 -7 -51 -37 -59 -38 -10 -73 -51 -73 -86 0 -20 4 -24 23 -20 39 9
598 137 707 163 90 21 349 81 503 116 53 12 58 25 22 59 -19 18 -36 23 -70 22
-40 0 -47 3 -60 28 -8 16 -31 41 -51 56 -51 40 -114 42 -248 10 -60 -15 -128
-29 -151 -33 l-42 -5 -18 71 c-19 77 -16 101 13 101 33 0 215 66 302 110 153
77 335 214 403 304 15 20 33 36 39 36 5 0 36 -16 69 -36 66 -41 98 -41 125 2
23 35 8 65 -55 106 -53 35 -60 50 -36 82 20 27 19 52 -5 76 -33 33 -75 26
-106 -17 -81 -110 -111 -148 -169 -207 -158 -162 -351 -269 -605 -337 -98 -26
-361 -37 -481 -20 -104 15 -268 69 -374 123 -203 102 -399 294 -498 485 -179
348 -168 754 30 1093 56 97 65 128 43 155 -20 25 -77 19 -105 -11 l-23 -25
-51 25 c-61 31 -94 33 -121 6z"/>
<path d="M6355 3353 c-11 -3 -27 -11 -35 -18 -8 -7 -24 -15 -35 -17 -13 -2
-19 -10 -17 -23 15 -100 15 -100 -11 -131 -21 -25 -25 -40 -25 -89 1 -57 4
-64 71 -162 56 -82 81 -109 128 -139 57 -37 67 -51 88 -124 31 -109 42 -125
101 -154 75 -36 95 -39 140 -16 21 11 46 20 55 20 31 0 142 59 147 78 4 13 27
25 86 41 89 26 108 43 137 126 9 28 35 69 61 97 47 51 58 94 27 104 -10 3 -31
12 -46 20 -16 7 -43 14 -62 14 -18 0 -49 7 -68 15 -20 8 -50 15 -66 15 -16 0
-33 5 -37 11 -3 6 -14 9 -24 6 -22 -6 -50 10 -50 28 0 8 -10 34 -22 59 -16 34
-28 46 -51 50 -38 8 -41 4 -32 -31 4 -15 10 -22 12 -15 6 15 33 16 33 0 0 -6
-7 -20 -17 -30 -15 -17 -15 -20 5 -41 12 -13 22 -32 22 -44 0 -29 29 -51 80
-59 25 -4 49 -12 53 -18 5 -7 13 -3 24 12 19 27 43 29 43 2 0 -15 7 -20 26
-20 14 0 23 -4 19 -10 -10 -16 10 -11 36 9 30 22 49 17 49 -15 0 -15 -6 -24
-16 -24 -13 0 -14 -3 -4 -15 10 -12 8 -20 -12 -43 -13 -16 -30 -26 -37 -24 -9
3 -12 -5 -9 -29 3 -29 0 -34 -19 -34 -11 0 -25 -4 -30 -9 -5 -5 -3 -6 5 -2 15
9 45 -12 36 -25 -3 -5 -13 -9 -22 -9 -9 0 -30 -11 -47 -24 -27 -22 -31 -22
-52 -9 -19 13 -26 13 -39 2 -8 -7 -13 -21 -11 -31 5 -16 -1 -20 -30 -17 -5 0
-7 7 -7 15 1 8 -2 14 -7 14 -5 0 -9 -8 -9 -19 0 -10 -10 -31 -22 -46 -17 -22
-27 -26 -52 -22 -17 3 -48 -1 -69 -8 -22 -8 -40 -9 -43 -3 -3 5 -11 4 -19 -2
-18 -15 -35 -4 -35 21 0 18 -4 20 -30 14 -19 -4 -30 -3 -31 4 -3 20 -4 26 -11
37 -4 6 -3 25 2 43 6 22 5 31 -3 31 -6 0 -28 12 -49 26 -36 26 -38 28 -22 45
16 17 12 24 -10 20 -4 -1 -14 3 -22 10 -7 6 -28 11 -45 12 -32 2 -55 27 -25
27 9 0 16 4 16 9 0 5 6 11 13 14 6 2 0 2 -14 0 -20 -3 -30 3 -43 22 -9 14 -14
29 -12 34 3 5 -4 21 -16 37 -27 34 -34 104 -10 104 8 0 12 3 8 8 -4 4 -17 7
-29 7 -31 0 -31 19 2 53 26 29 39 82 19 82 -12 0 -10 38 2 45 18 11 11 27 -10
22 -29 -8 -24 12 6 23 31 12 44 6 44 -21 0 -25 16 -24 23 2 4 16 10 19 29 14
32 -10 32 -10 14 -46 -17 -33 -13 -55 5 -29 8 11 12 12 16 3 2 -7 11 -13 19
-13 16 0 8 29 -13 45 -8 6 -9 15 -4 24 15 23 161 -16 161 -43 0 -7 8 -13 17
-12 10 0 23 -11 31 -27 11 -23 19 -28 38 -24 17 3 29 -2 39 -16 8 -12 18 -17
22 -13 4 4 0 13 -10 20 -9 7 -17 18 -17 25 0 6 -3 10 -7 10 -22 -4 -33 3 -33
19 0 24 -80 79 -127 88 -21 3 -45 12 -53 19 -18 15 -55 27 -90 30 -14 2 -34 5
-45 8 -11 3 -29 3 -40 0z"/>
<path d="M11268 2194 c-5 -4 -8 -72 -8 -151 l0 -143 69 0 c54 0 75 5 102 23
92 61 91 205 -3 253 -35 18 -148 31 -160 18z m115 -35 c63 -17 94 -93 67 -163
-13 -35 -66 -66 -112 -66 l-38 0 0 113 c0 63 3 117 7 120 9 10 32 9 76 -4z"/>
<path d="M11687 2193 c-4 -3 -7 -71 -7 -150 0 -136 1 -143 20 -143 19 0 20 7
20 111 0 60 4 108 8 105 4 -2 27 -52 51 -110 57 -139 65 -139 121 -3 24 56 47
106 52 112 4 5 8 -41 8 -103 0 -106 1 -112 20 -112 20 0 20 5 18 148 -3 144
-3 147 -26 150 -19 3 -27 -6 -50 -60 -16 -35 -37 -85 -47 -113 -33 -91 -34
-90 -91 55 -21 52 -42 101 -47 108 -10 13 -39 16 -50 5z"/>
<path d="M12255 2182 c-39 -24 -50 -38 -65 -85 -37 -115 68 -232 179 -198 40
12 101 70 101 96 0 22 -38 18 -45 -5 -18 -56 -108 -79 -158 -39 -83 64 -39
219 61 219 37 0 79 -27 94 -60 9 -20 20 -30 35 -30 20 0 22 3 12 27 -31 83
-139 120 -214 75z"/>
<path d="M9807 2094 c-2 -2 -159 -6 -348 -8 -189 -2 -465 -7 -614 -10 -763
-16 -821 -19 -786 -41 6 -3 180 -1 388 5 498 13 736 18 975 19 124 0 199 4
203 11 3 5 13 10 21 10 8 0 13 -4 10 -9 -3 -5 24 -7 62 -5 117 6 855 9 1157 5
270 -4 348 3 249 21 -59 11 -1225 8 -1219 -3 4 -5 1 -9 -4 -9 -6 0 -11 4 -11
9 0 8 -75 12 -83 5z"/>
</g>
</svg>
